<svg xmlns="http://www.w3.org/2000/svg" xmlns:xlink="http://www.w3.org/1999/xlink" width="500" zoomAndPan="magnify" viewBox="0 0 375 374.999991" height="500" preserveAspectRatio="xMidYMid meet" version="1.0"><defs><clipPath id="37a71abfb2"><path d="M 91.191406 168 L 127 168 L 127 227 L 91.191406 227 Z M 91.191406 168 " clip-rule="nonzero"/></clipPath><clipPath id="10027e6e31"><path d="M 118 99.714844 L 173 99.714844 L 173 155 L 118 155 Z M 118 99.714844 " clip-rule="nonzero"/></clipPath><clipPath id="3968d417d8"><path d="M 112 157 L 195 157 L 195 275.214844 L 112 275.214844 Z M 112 157 " clip-rule="nonzero"/></clipPath><clipPath id="b7eb0a113a"><path d="M 188 163 L 266.691406 163 L 266.691406 267 L 188 267 Z M 188 163 " clip-rule="nonzero"/></clipPath></defs><g clip-path="url(#37a71abfb2)"><path fill="#ffffff" d="M 96.417969 168.484375 C 93.144531 172.976562 91.191406 178.484375 91.191406 184.46875 L 91.191406 214.738281 C 91.191406 221.429688 96.621094 226.84375 103.300781 226.84375 L 126.746094 226.84375 L 96.417969 168.484375 " fill-opacity="1" fill-rule="nonzero"/></g><path fill="#ffffff" d="M 169.890625 217.765625 C 169.890625 215.363281 168.945312 213.070312 167.21875 211.320312 C 165.503906 209.628906 163.222656 208.683594 160.8125 208.683594 L 155.160156 208.683594 L 164.25 226.160156 C 167.550781 224.800781 169.890625 221.558594 169.890625 217.765625 " fill-opacity="1" fill-rule="nonzero"/><g clip-path="url(#10027e6e31)"><path fill="#ffffff" d="M 145.675781 154.199219 C 160.714844 154.199219 172.917969 141.996094 172.917969 126.957031 C 172.917969 111.917969 160.714844 99.714844 145.675781 99.714844 C 130.636719 99.714844 118.433594 111.917969 118.433594 126.957031 C 118.433594 141.996094 130.636719 154.199219 145.675781 154.199219 " fill-opacity="1" fill-rule="nonzero"/></g><path fill="#ffffff" d="M 157.785156 226.84375 L 121.582031 157.226562 L 118.433594 157.226562 C 111.695312 157.226562 105.535156 159.6875 100.78125 163.753906 L 133.570312 226.84375 L 157.785156 226.84375 " fill-opacity="1" fill-rule="nonzero"/><g clip-path="url(#3968d417d8)"><path fill="#ffffff" d="M 187.402344 169.546875 C 189.933594 169.273438 192.441406 168.882812 194.910156 168.445312 C 189.957031 161.660156 181.964844 157.226562 172.917969 157.226562 L 166.617188 157.226562 C 160.539062 161.070312 153.363281 163.28125 145.675781 163.28125 C 140.035156 163.28125 134.667969 162.074219 129.808594 159.921875 L 152.015625 202.628906 L 160.8125 202.628906 C 164.820312 202.628906 168.613281 204.203125 171.5 207.039062 C 174.371094 209.960938 175.945312 213.753906 175.945312 217.765625 C 175.945312 226.113281 169.160156 232.898438 160.8125 232.898438 L 112.382812 232.898438 L 112.382812 275.273438 L 142.648438 275.273438 L 142.648438 251.058594 L 148.703125 251.058594 L 148.703125 275.273438 L 178.972656 275.273438 L 178.972656 232.898438 L 186.113281 232.898438 C 183.453125 225.792969 182 218.214844 182 210.386719 L 182 170.125 L 187.402344 169.546875 " fill-opacity="1" fill-rule="nonzero"/></g><g clip-path="url(#b7eb0a113a)"><path fill="#ffffff" d="M 220.460938 232.53125 C 219.871094 233.121094 219.101562 233.417969 218.320312 233.417969 C 217.542969 233.417969 216.773438 233.121094 216.183594 232.53125 L 201.046875 217.398438 L 205.328125 213.117188 L 218.320312 226.113281 L 249.476562 194.957031 L 253.757812 199.234375 Z M 227.402344 163.800781 C 215.199219 170.113281 201.839844 174.085938 188.054688 175.566406 L 188.054688 210.386719 C 188.054688 234.96875 203.695312 257.113281 227.402344 266.714844 C 251.109375 257.113281 266.75 234.96875 266.75 210.386719 L 266.75 175.566406 C 252.964844 174.085938 239.605469 170.113281 227.402344 163.800781 " fill-opacity="1" fill-rule="nonzero"/></g></svg>