<svg xmlns="http://www.w3.org/2000/svg" xmlns:xlink="http://www.w3.org/1999/xlink" width="500" zoomAndPan="magnify" viewBox="0 0 375 374.999991" height="500" preserveAspectRatio="xMidYMid meet" version="1.0"><defs><clipPath id="e0bde40497"><path d="M 138 104.679688 L 282 104.679688 L 282 213 L 138 213 Z M 138 104.679688 " clip-rule="nonzero"/></clipPath></defs><path fill="#950806" d="M 230.445312 211.199219 L 213.582031 216.355469 C 212.59375 219.132812 210.808594 221.515625 208.425781 223.5 L 188.988281 238.773438 C 190.574219 242.738281 194.9375 244.722656 198.90625 243.53125 L 199.101562 243.53125 C 203.269531 242.144531 205.847656 238.375 205.847656 234.210938 C 207.832031 235.398438 210.410156 235.796875 212.789062 235.003906 L 212.988281 235.003906 C 217.550781 233.613281 220.128906 228.65625 218.742188 223.894531 C 220.726562 225.085938 223.304688 225.480469 225.683594 224.6875 L 225.882812 224.6875 C 230.445312 223.300781 233.023438 218.339844 231.636719 213.582031 Z M 230.445312 211.199219 " fill-opacity="1" fill-rule="nonzero"/><path fill="#950806" d="M 206.640625 203.066406 C 202.871094 198.304688 195.730469 197.511719 190.96875 201.28125 L 172.523438 215.960938 C 164.984375 221.910156 153.875 218.539062 151.101562 209.214844 L 140.386719 173.3125 C 128.089844 179.261719 107.660156 218.140625 107.660156 218.140625 L 96.550781 223.894531 C 93.972656 225.285156 92.78125 228.0625 93.375 230.835938 L 103.292969 265.351562 C 104.085938 268.527344 107.0625 270.3125 110.039062 269.71875 C 115.792969 268.726562 125.113281 267.335938 133.246094 267.734375 C 139.394531 268.128906 148.125 263.964844 149.710938 262.574219 C 154.671875 258.609375 204.855469 218.738281 204.855469 218.738281 C 209.617188 214.96875 210.410156 207.828125 206.640625 203.066406 Z M 206.640625 203.066406 " fill-opacity="1" fill-rule="nonzero"/><g clip-path="url(#e0bde40497)"><path fill="#950806" d="M 163.992188 212.785156 C 161.414062 212.785156 158.242188 211.398438 157.050781 207.628906 L 139.199219 147.921875 C 137.609375 142.765625 140.585938 137.410156 145.546875 136.019531 L 248.890625 105.074219 C 249.882812 104.878906 250.679688 104.679688 251.667969 104.679688 C 255.835938 104.679688 259.605469 107.457031 260.792969 111.621094 L 281.226562 179.261719 C 282.21875 182.238281 281.621094 185.609375 279.441406 188.191406 C 278.25 189.578125 276.464844 190.769531 274.679688 191.363281 L 215.171875 209.214844 C 215.171875 208.421875 214.972656 207.628906 214.972656 207.035156 C 214.574219 204.257812 213.386719 201.875 211.402344 199.496094 C 208.03125 195.332031 203.070312 192.949219 197.714844 192.949219 C 195.929688 192.949219 194.34375 193.148438 192.558594 193.742188 C 190.375 194.339844 188.390625 195.332031 186.605469 196.917969 L 168.160156 211.597656 C 167.167969 212.191406 166.570312 212.589844 165.777344 212.785156 C 165.382812 212.589844 164.785156 212.785156 163.992188 212.785156 Z M 260.792969 175.296875 C 260.398438 175.296875 260 175.296875 259.605469 175.496094 L 229.054688 184.621094 C 228.0625 185.015625 227.074219 185.609375 226.675781 186.601562 C 226.082031 187.59375 226.082031 188.585938 226.277344 189.777344 C 226.875 191.5625 228.460938 192.753906 230.246094 192.753906 C 230.644531 192.753906 231.039062 192.753906 231.4375 192.554688 L 261.984375 183.429688 C 264.167969 182.832031 265.355469 180.453125 264.761719 178.46875 C 264.167969 176.488281 262.578125 175.296875 260.792969 175.296875 Z M 173.515625 164.386719 C 168.953125 167.558594 166.375 173.3125 167.367188 178.867188 L 168.355469 185.609375 C 168.554688 187.394531 170.140625 188.785156 171.929688 188.785156 C 172.324219 188.785156 172.722656 188.785156 172.917969 188.585938 L 204.65625 179.066406 C 205.648438 178.667969 206.441406 178.074219 206.839844 177.082031 C 207.238281 176.089844 207.238281 175.097656 206.839844 174.105469 L 204.0625 167.757812 C 201.683594 162.601562 196.523438 159.230469 190.96875 159.03125 C 188.390625 161.609375 185.8125 163.195312 182.835938 164.1875 C 181.25 164.585938 179.664062 164.980469 178.078125 164.980469 C 176.6875 164.980469 175.300781 164.78125 173.910156 164.386719 Z M 255.835938 158.832031 C 255.4375 158.832031 255.042969 158.832031 254.644531 159.03125 L 224.097656 168.15625 C 221.914062 168.75 220.726562 171.128906 221.320312 173.3125 C 221.914062 175.097656 223.503906 176.289062 225.289062 176.289062 C 225.683594 176.289062 226.082031 176.289062 226.476562 176.089844 L 257.023438 166.964844 C 258.015625 166.566406 258.8125 165.972656 259.40625 164.980469 C 260 163.988281 260 162.996094 259.800781 161.808594 C 259.207031 160.023438 257.621094 158.832031 255.835938 158.832031 Z M 178.671875 138.003906 C 177.480469 138.003906 176.488281 138.203125 175.300781 138.597656 C 172.324219 139.589844 169.945312 141.574219 168.355469 144.351562 C 166.96875 147.128906 166.570312 150.300781 167.367188 153.277344 C 168.753906 158.238281 173.515625 161.609375 178.472656 161.609375 C 179.664062 161.609375 180.65625 161.410156 181.847656 161.015625 C 187.996094 159.230469 191.566406 152.683594 189.582031 146.535156 C 188.390625 141.375 183.828125 138.003906 178.671875 138.003906 Z M 230.644531 153.871094 C 230.839844 154.863281 231.832031 155.460938 232.824219 155.460938 L 233.421875 155.460938 L 239.769531 153.476562 C 240.957031 153.078125 241.554688 151.890625 241.355469 150.699219 L 239.171875 143.558594 L 246.3125 141.375 C 246.910156 141.179688 247.304688 140.78125 247.703125 140.382812 C 247.902344 139.789062 248.097656 139.195312 247.902344 138.597656 L 245.917969 132.25 C 245.71875 131.257812 244.726562 130.664062 243.734375 130.664062 L 243.140625 130.664062 L 236 132.847656 L 233.816406 125.707031 C 233.617188 124.714844 232.625 124.117188 231.636719 124.117188 L 231.039062 124.117188 L 224.691406 126.101562 C 224.097656 126.300781 223.699219 126.699219 223.304688 127.09375 C 223.105469 127.6875 223.105469 128.285156 223.105469 128.878906 L 225.289062 136.019531 L 218.144531 138.203125 C 216.957031 138.597656 216.359375 139.789062 216.558594 140.980469 L 218.542969 147.328125 C 218.742188 148.320312 219.734375 148.914062 220.726562 148.914062 L 221.320312 148.914062 L 228.460938 146.730469 Z M 230.644531 153.871094 " fill-opacity="1" fill-rule="nonzero"/></g></svg>