<svg xmlns="http://www.w3.org/2000/svg" xmlns:xlink="http://www.w3.org/1999/xlink" width="500" zoomAndPan="magnify" viewBox="0 0 375 374.999991" height="500" preserveAspectRatio="xMidYMid meet" version="1.0"><defs><clipPath id="a36278c0e7"><path d="M 199 104.421875 L 220 104.421875 L 220 126 L 199 126 Z M 199 104.421875 " clip-rule="nonzero"/></clipPath><clipPath id="75f32a2647"><path d="M 141 104.421875 L 162 104.421875 L 162 125 L 141 125 Z M 141 104.421875 " clip-rule="nonzero"/></clipPath><clipPath id="5076f63036"><path d="M 142 257 L 179 257 L 179 270.921875 L 142 270.921875 Z M 142 257 " clip-rule="nonzero"/></clipPath><clipPath id="bd18418555"><path d="M 181 257 L 219 257 L 219 270.921875 L 181 270.921875 Z M 181 257 " clip-rule="nonzero"/></clipPath></defs><path fill="#ffffff" d="M 183.941406 154.519531 C 186.921875 152.773438 188.109375 149.054688 186.617188 145.890625 C 183.566406 139.460938 173.871094 141.628906 173.871094 148.75 C 173.871094 153.921875 179.488281 157.136719 183.941406 154.519531 " fill-opacity="1" fill-rule="nonzero"/><path fill="#ffffff" d="M 195.957031 173.65625 L 193.808594 167.609375 C 191.6875 161.617188 191.230469 158.046875 187.257812 158.046875 L 185.320312 158.046875 L 185.320312 156.425781 C 182.601562 158.828125 178.546875 158.847656 175.808594 156.425781 L 175.808594 158.046875 C 169.539062 158.046875 170.59375 158.371094 165.179688 173.65625 C 164.105469 176.675781 168.585938 178.390625 169.804688 175.441406 L 173.3125 166.972656 C 173.3125 189.878906 173.3125 156.527344 173.3125 197.589844 C 173.3125 200.792969 178.089844 200.945312 178.3125 197.761719 L 179.628906 178.511719 L 181.496094 178.511719 L 182.824219 197.761719 C 183.039062 200.945312 187.8125 200.792969 187.8125 197.589844 C 187.8125 156.8125 187.8125 182.324219 187.8125 166.972656 L 191.324219 175.441406 C 192.539062 178.390625 197.023438 176.675781 195.957031 173.65625 " fill-opacity="1" fill-rule="nonzero"/><g clip-path="url(#a36278c0e7)"><path fill="#ffffff" d="M 209.65625 125.128906 C 215.296875 125.128906 219.859375 120.554688 219.859375 114.917969 C 219.859375 109.28125 215.296875 104.707031 209.65625 104.707031 C 204.019531 104.707031 199.445312 109.28125 199.445312 114.917969 C 199.445312 120.554688 204.019531 125.128906 209.65625 125.128906 " fill-opacity="1" fill-rule="nonzero"/></g><path fill="#ffffff" d="M 235.355469 154.488281 L 229.542969 135.695312 C 228.347656 131.832031 224.769531 129.195312 220.710938 129.195312 L 198.59375 129.195312 C 194.546875 129.195312 190.96875 131.832031 189.761719 135.695312 L 186.921875 144.90625 C 189.203125 148.65625 187.753906 153.523438 183.789062 155.441406 C 183.777344 155.816406 183.820312 156.191406 183.921875 156.546875 C 184.621094 156.109375 185.402344 155.359375 186.058594 154.78125 C 186.058594 155.054688 186.058594 157.023438 186.058594 157.308594 C 187.550781 157.308594 188.675781 157.226562 190.105469 158.160156 C 190.785156 157.460938 197.894531 142.824219 198.320312 141.953125 L 194.070312 166.121094 L 196.65625 173.410156 C 197.628906 176.179688 194.699219 178.714844 192.105469 177.324219 L 191.789062 179.101562 L 198.59375 179.101562 L 198.59375 195.589844 C 198.59375 201.472656 207.050781 201.511719 207.234375 195.90625 L 207.78125 179.101562 L 211.535156 179.101562 L 212.070312 195.90625 C 212.253906 201.53125 220.710938 201.390625 220.710938 195.761719 L 220.710938 179.101562 L 227.515625 179.101562 L 220.984375 141.953125 L 228.53125 157.214844 C 229.394531 158.941406 231.441406 159.722656 233.226562 158.992188 C 235 158.261719 235.921875 156.3125 235.355469 154.488281 " fill-opacity="1" fill-rule="nonzero"/><g clip-path="url(#75f32a2647)"><path fill="#ffffff" d="M 151.480469 124.917969 C 157.054688 124.917969 161.578125 120.394531 161.578125 114.816406 C 161.578125 109.238281 157.054688 104.707031 151.480469 104.707031 C 145.890625 104.707031 141.367188 109.238281 141.367188 114.816406 C 141.367188 120.394531 145.890625 124.917969 151.480469 124.917969 " fill-opacity="1" fill-rule="nonzero"/></g><path fill="#ffffff" d="M 169.925781 159.113281 C 171.242188 157.589844 172.746094 157.308594 174.507812 157.308594 C 174.679688 156.253906 174.753906 157.144531 168.394531 134.722656 C 167.398438 131.214844 164.195312 128.789062 160.542969 128.789062 L 142.402344 128.789062 C 138.75 128.789062 135.546875 131.214844 134.554688 134.722656 L 128.519531 156.019531 C 127.476562 159.539062 132.707031 161.382812 134.046875 157.722656 L 140.527344 140.046875 C 140.527344 142.136719 140.527344 195.203125 140.527344 196.167969 C 140.527344 198.1875 142.046875 199.949219 144.054688 200.082031 C 146.144531 200.214844 147.917969 198.621094 148.050781 196.5625 L 149.925781 167.53125 L 153.019531 167.53125 L 154.886719 196.433594 C 155.210938 201.453125 162.421875 201.117188 162.421875 196.320312 C 162.421875 191.066406 162.421875 145.390625 162.421875 140.046875 C 169.105469 158.28125 168.769531 158.230469 169.925781 159.113281 " fill-opacity="1" fill-rule="nonzero"/><path fill="#ffffff" d="M 147.96875 253.757812 L 174.480469 253.757812 L 174.480469 237.941406 C 174.480469 222.960938 162.328125 210.8125 147.351562 210.8125 C 140.769531 210.8125 138.945312 207.707031 126.308594 195.40625 C 124.179688 193.339844 122.070312 193.105469 119.523438 194.148438 C 117.457031 194.992188 118.660156 196.410156 130.292969 212.222656 C 129.308594 212.910156 127.960938 212.6875 127.25 211.714844 L 115.894531 196.085938 C 115.09375 194.992188 115.425781 193.429688 116.625 192.761719 C 119.402344 191.210938 118.824219 192.082031 118.0625 176.171875 C 117.707031 168.789062 111.320312 166.757812 111.199219 167.855469 C 108.90625 188.96875 107.679688 193.09375 109.960938 199.320312 C 111.53125 203.632812 115.082031 209.058594 117.34375 215.265625 C 120.648438 224.332031 126.53125 226.753906 139.328125 234.855469 C 144.703125 238.265625 147.96875 244.1875 147.96875 250.554688 L 147.96875 253.757812 " fill-opacity="1" fill-rule="nonzero"/><g clip-path="url(#5076f63036)"><path fill="#ffffff" d="M 169.753906 261.667969 C 169.753906 257.988281 175.320312 257.988281 175.320312 261.667969 C 175.320312 265.351562 169.753906 265.351562 169.753906 261.667969 Z M 176.660156 257.300781 L 144.652344 257.300781 C 143.46875 257.300781 142.492188 258.261719 142.492188 259.457031 L 142.492188 267.867188 C 142.492188 269.050781 143.46875 270.027344 144.652344 270.027344 L 176.660156 270.027344 C 177.855469 270.027344 178.820312 269.050781 178.820312 267.867188 L 178.820312 259.457031 C 178.820312 258.261719 177.855469 257.300781 176.660156 257.300781 " fill-opacity="1" fill-rule="nonzero"/></g><path fill="#900504" d="M 249.542969 167.855469 C 249.421875 166.757812 243.03125 168.789062 242.675781 176.171875 C 241.917969 192.070312 241.339844 191.210938 244.117188 192.761719 C 245.3125 193.429688 245.648438 194.992188 244.847656 196.085938 L 233.488281 211.714844 C 232.78125 212.6875 231.429688 212.910156 230.449219 212.222656 C 237.78125 202.261719 240.761719 197.972656 241.875 196.109375 C 242.28125 195.417969 242.039062 194.484375 241.21875 194.148438 C 238.671875 193.105469 236.5625 193.339844 234.433594 195.40625 C 222.3125 207.203125 220.113281 210.8125 213.390625 210.8125 C 198.410156 210.8125 186.261719 222.960938 186.261719 237.941406 L 186.261719 253.757812 L 212.773438 253.757812 L 212.773438 250.554688 C 212.773438 230.757812 236.925781 233.019531 243.398438 215.265625 C 245.660156 209.058594 249.207031 203.632812 250.78125 199.320312 C 253.0625 193.09375 251.835938 188.96875 249.542969 167.855469 " fill-opacity="1" fill-rule="nonzero"/><g clip-path="url(#bd18418555)"><path fill="#900504" d="M 185.421875 261.667969 C 185.421875 257.988281 190.988281 257.988281 190.988281 261.667969 C 190.988281 265.351562 185.421875 265.351562 185.421875 261.667969 Z M 216.085938 257.300781 L 184.082031 257.300781 C 182.886719 257.300781 181.921875 258.261719 181.921875 259.457031 L 181.921875 267.867188 C 181.921875 269.050781 182.886719 270.027344 184.082031 270.027344 L 216.085938 270.027344 C 217.273438 270.027344 218.246094 269.050781 218.246094 267.867188 L 218.246094 259.457031 C 218.246094 258.261719 217.273438 257.300781 216.085938 257.300781 " fill-opacity="1" fill-rule="nonzero"/></g></svg>