<svg xmlns="http://www.w3.org/2000/svg" xmlns:xlink="http://www.w3.org/1999/xlink" width="500" zoomAndPan="magnify" viewBox="0 0 375 374.999991" height="500" preserveAspectRatio="xMidYMid meet" version="1.0"><defs><clipPath id="ac58dc334b"><path d="M 194 104.308594 L 253 104.308594 L 253 172 L 194 172 Z M 194 104.308594 " clip-rule="nonzero"/></clipPath></defs><path fill="#ffffff" d="M 226.632812 176.847656 C 228.296875 176.140625 229.8125 175.390625 231.234375 174.59375 C 229.8125 177.648438 228.144531 180.675781 226.261719 183.671875 C 224.527344 186.421875 223.578125 189.570312 223.484375 192.816406 C 223.171875 203.964844 222.683594 215.667969 221.9375 227.902344 C 221.164062 240.472656 218.328125 250.878906 214.558594 258.382812 C 213.386719 260.765625 206.683594 270.675781 200.507812 269.4375 C 196.125 268.574219 192.910156 259.460938 192.816406 251.898438 C 192.664062 238.214844 187.347656 221.597656 181.945312 214.28125 C 181.171875 213.226562 179.597656 213.226562 178.824219 214.28125 C 173.390625 221.597656 168.105469 238.214844 167.957031 251.898438 C 167.863281 259.460938 164.648438 268.570312 160.265625 269.4375 C 154.089844 270.675781 147.382812 260.765625 146.214844 258.382812 C 142.445312 250.878906 139.601562 240.472656 138.835938 227.902344 C 138.09375 215.667969 137.566406 203.929688 137.289062 192.816406 C 137.195312 189.578125 136.234375 186.421875 134.511719 183.671875 C 124.625 167.886719 120.703125 150.839844 125.425781 137.714844 C 128.082031 130.304688 136.824219 118.84375 147.878906 117.609375 C 151.777344 117.179688 158.902344 116.246094 167.25 121.375 C 169.445312 122.707031 172.09375 123.664062 174.535156 124.28125 C 176.972656 124.867188 179.171875 125.144531 180.398438 125.144531 C 182.039062 125.144531 185.464844 124.648438 188.828125 123.503906 C 189.511719 138.113281 193.09375 158.496094 209.585938 170.292969 C 212.582031 172.421875 216.164062 174.863281 220.824219 176.839844 C 221.75 177.210938 222.746094 177.429688 223.730469 177.429688 C 224.714844 177.429688 225.707031 177.21875 226.632812 176.847656 Z M 226.632812 176.847656 " fill-opacity="1" fill-rule="nonzero"/><g clip-path="url(#ac58dc334b)"><path fill="#ffffff" d="M 252.578125 110.261719 C 252.578125 109.707031 252.242188 109.246094 251.710938 109.058594 C 248.4375 107.949219 244.730469 106.898438 240.597656 106.0625 C 234.230469 104.761719 228.515625 104.363281 223.730469 104.332031 C 218.941406 104.363281 213.230469 104.761719 206.835938 106.0625 C 202.726562 106.898438 198.992188 107.949219 195.746094 109.058594 C 195.222656 109.246094 194.878906 109.707031 194.878906 110.261719 C 194.878906 112.796875 194.753906 116.378906 194.878906 120.609375 C 195.25 134.257812 197.90625 154.367188 213.160156 165.269531 C 215.914062 167.246094 219.117188 169.445312 223.199219 171.167969 C 223.535156 171.292969 223.90625 171.292969 224.25 171.167969 C 228.332031 169.433594 231.535156 167.246094 234.289062 165.269531 C 234.53125 165.085938 234.785156 164.933594 234.996094 164.714844 C 254.246094 150.253906 252.636719 120.820312 252.578125 110.261719 Z M 237.890625 125.171875 L 222.027344 143.839844 C 221.289062 144.714844 220.210938 145.222656 219.085938 145.222656 C 219.085938 145.222656 219.074219 145.222656 219.074219 145.222656 C 217.949219 145.222656 216.878906 144.722656 216.132812 143.847656 L 209.578125 136.183594 C 208.464844 134.890625 208.617188 132.9375 209.914062 131.835938 C 211.210938 130.722656 213.160156 130.875 214.261719 132.171875 L 219.058594 137.785156 L 233.167969 121.175781 C 234.269531 119.871094 236.222656 119.71875 237.519531 120.820312 C 238.832031 121.921875 238.992188 123.867188 237.890625 125.171875 Z M 237.890625 125.171875 " fill-opacity="1" fill-rule="nonzero"/></g></svg>