<svg xmlns="http://www.w3.org/2000/svg" xmlns:xlink="http://www.w3.org/1999/xlink" width="500" zoomAndPan="magnify" viewBox="0 0 375 374.999991" height="500" preserveAspectRatio="xMidYMid meet" version="1.0"><defs><clipPath id="fb13dad14d"><path d="M 83.230469 181 L 291 181 L 291 258 L 83.230469 258 Z M 83.230469 181 " clip-rule="nonzero"/></clipPath></defs><g clip-path="url(#fb13dad14d)"><path fill="#950806" d="M 283.324219 183.78125 C 282.699219 183.890625 281.878906 183.699219 281.355469 183.339844 C 279.464844 182.058594 277.445312 181.53125 275.28125 182.253906 C 273.703125 182.78125 272.085938 183.425781 270.722656 184.359375 C 267.738281 186.40625 264.832031 188.582031 262.023438 190.871094 C 254.652344 196.886719 248.035156 203.867188 239.363281 208.421875 C 244.441406 214.089844 243.007812 219.703125 239.511719 223.058594 C 234.910156 227.476562 229.28125 229.425781 223.007812 228.636719 C 216.316406 227.796875 209.691406 226.429688 203.039062 225.324219 C 198.925781 224.640625 194.816406 223.929688 190.6875 223.386719 C 184.722656 222.601562 178.894531 223.238281 173.292969 225.519531 C 172.269531 225.933594 171.429688 225.847656 170.894531 224.808594 C 170.375 223.769531 170.652344 222.855469 171.527344 222.15625 C 171.910156 221.859375 172.398438 221.691406 172.859375 221.519531 C 179.242188 219.105469 185.84375 218.613281 192.515625 219.65625 C 202.710938 221.246094 212.851562 223.183594 223.058594 224.710938 C 228.390625 225.511719 233.246094 223.960938 237.042969 219.988281 C 239.585938 217.328125 239.261719 213.71875 236.511719 211.277344 C 234.597656 209.582031 232.292969 208.675781 229.828125 208.203125 C 225.003906 207.269531 220.171875 206.394531 215.34375 205.496094 C 202.03125 203.023438 189.066406 199.460938 176.761719 193.652344 C 173.191406 191.972656 169.390625 190.707031 165.59375 189.589844 C 158.03125 187.355469 150.292969 186.691406 142.453125 187.773438 C 132.210938 189.1875 123.332031 193.539062 115.628906 200.363281 C 111.28125 204.21875 106.480469 207.308594 101.101562 209.550781 C 95.929688 211.710938 90.851562 214.101562 85.691406 216.28125 C 84.085938 216.957031 83.347656 218.0625 83.277344 219.667969 C 83.214844 221.003906 83.171875 222.375 83.386719 223.679688 C 85.097656 234.15625 89.257812 243.632812 95.414062 252.226562 C 96.640625 253.9375 98.273438 255.375 99.839844 256.804688 C 100.898438 257.769531 102.140625 257.855469 103.566406 257.21875 C 112.621094 253.160156 121.722656 249.210938 130.78125 245.171875 C 137.925781 241.988281 145.371094 241.191406 152.90625 243 C 160.816406 244.894531 168.585938 247.328125 176.433594 249.464844 C 184.320312 251.605469 192.042969 254.457031 200.277344 255.144531 C 206.269531 255.640625 212.121094 255.125 217.523438 252.277344 C 231.789062 244.757812 246.019531 237.167969 260.269531 229.613281 C 264.195312 227.53125 267.550781 224.761719 270.15625 221.171875 C 276.527344 212.417969 282.84375 203.625 289.121094 194.804688 C 289.820312 193.820312 290.308594 192.605469 290.59375 191.421875 C 291.710938 186.714844 288.054688 182.960938 283.324219 183.78125 " fill-opacity="1" fill-rule="nonzero"/></g><path fill="#950806" d="M 215.4375 124.8125 C 229.734375 125.378906 239.933594 137.351562 239.410156 150.542969 C 238.84375 164.839844 226.875 174.992188 213.671875 174.53125 C 199.382812 173.902344 189.179688 161.984375 189.707031 148.785156 C 190.273438 134.484375 202.238281 124.285156 215.4375 124.8125 Z M 188.410156 175.914062 C 195.765625 179.128906 203.433594 181.191406 211.472656 181.636719 C 220.609375 182.132812 229.40625 180.4375 237.863281 177.089844 C 251.554688 171.683594 263.300781 163.351562 273.570312 152.878906 C 274.269531 152.167969 274.71875 151.214844 275.28125 150.378906 C 275.28125 149.902344 275.28125 149.425781 275.28125 148.953125 C 274.882812 148.285156 274.59375 147.511719 274.066406 146.964844 C 264.4375 137.007812 253.4375 128.976562 240.707031 123.417969 C 233.34375 120.199219 225.679688 118.136719 217.636719 117.695312 C 208.507812 117.195312 199.710938 118.890625 191.246094 122.238281 C 177.558594 127.644531 165.8125 135.980469 155.539062 146.453125 C 154.847656 147.160156 154.394531 148.113281 153.828125 148.953125 C 153.828125 149.425781 153.828125 149.902344 153.828125 150.378906 C 154.230469 151.042969 154.523438 151.816406 155.046875 152.363281 C 164.679688 162.320312 175.675781 170.351562 188.410156 175.914062 " fill-opacity="1" fill-rule="nonzero"/><path fill="#950806" d="M 219.671875 166.714844 C 226.128906 164.710938 232.109375 157.867188 231.839844 152.785156 C 225.613281 153.574219 221.667969 151.902344 219.351562 147.488281 C 216.988281 142.96875 217.917969 138.875 222.441406 133.886719 C 216.28125 130.226562 207.40625 131.617188 201.953125 137.097656 C 196.164062 142.921875 195.097656 151.863281 199.347656 158.894531 C 203.546875 165.820312 212.035156 169.089844 219.671875 166.714844 " fill-opacity="1" fill-rule="nonzero"/></svg>